<?xml version="1.0" encoding="UTF-8"?>
<svg width="1200pt" height="1200pt" version="1.1" viewBox="0 0 1200 1200" xmlns="http://www.w3.org/2000/svg">
 <path d="m741.75 21.637c-23.203-9.332-47.656-15.203-72.566-17.43-1.0898-0.24219-2.2148-0.24219-3.3047 0-110.08-15.848-222.23 7.4023-316.93 65.699-94.707 58.301-165.98 147.96-201.41 253.38-35.43 105.41-32.781 219.92 7.4883 323.58 40.273 103.66 115.61 189.93 212.92 243.79v154.75l-119.14 7.8125c-4.6055 0-8.3398 3.7344-8.3398 8.3398s3.7344 8.3359 8.3398 8.3359l64.754-4.207-74.219 25.543c-3.0781 2.1328-4.3359 6.0664-3.0664 9.5898 1.2656 3.5234 4.7461 5.7539 8.4727 5.4336l76.324-26.293-28.695 19.832v0.003906c-3.7734 2.6133-4.7188 7.793-2.1016 11.566 2.6133 3.7773 7.793 4.7188 11.566 2.1055l78.129-54.09 1.0508-1.0508 0.90234-1.3516v-1.2031c0.066406-0.59766 0.066406-1.2031 0-1.8047 0.015625-0.29688 0.015625-0.59766 0-0.89844v-153.7c26.184 13.23 53.547 23.996 81.73 32.152v168.12l-142.13 12.172c-2.2227 0.14844-4.2891 1.1914-5.7305 2.8906-1.4453 1.6953-2.1406 3.9062-1.9336 6.1211 0.15234 2.2227 1.1953 4.2891 2.8945 5.7305 1.6953 1.4453 3.9023 2.1406 6.1211 1.9336l84.438-7.0625-117.64 40.566c-4.1133 1.1016-6.7148 5.1445-6.0156 9.3398 0.69922 4.1992 4.4727 7.1797 8.7188 6.8867 0.89453 0.15234 1.8086 0.15234 2.7031 0l127.56-45.074-69.715 51.836c-1.7734 1.3125-2.9492 3.2812-3.2734 5.4648-0.32422 2.1836 0.23047 4.4062 1.5469 6.1797 2.7383 3.6914 7.9531 4.4648 11.645 1.7266l113.43-84.285v-1.0508-0.003907c1.1953-1.2344 1.9805-2.8086 2.2539-4.5078v-1.2031-171.28c39.258 10.121 79.652 15.172 120.2 15.027 84.141-0.007813 166.83-21.879 239.97-63.469 73.141-41.586 134.22-101.46 177.25-173.77 4.9062-6.0859 6.8828-14.023 5.4102-21.699-1.4766-7.6758-6.2539-14.316-13.062-18.152-6.8125-3.8398-14.965-4.4844-22.293-1.7695-7.332 2.7188-13.094 8.5234-15.762 15.871-2.6641 7.3477-1.9609 15.496 1.9219 22.281 3.8867 6.7852 10.559 11.516 18.246 12.934-41.891 63.383-98.547 115.64-165.1 152.28-66.555 36.641-141.01 56.566-216.97 58.062v-27.945c67.098-1.5742 132.66-20.363 190.41-54.566 57.75-34.199 105.74-82.668 139.37-140.75 0.078125-0.64844 0.078125-1.3047 0-1.9531 1.7891-3.0586 2.7734-6.5234 2.8555-10.066 0-7.6758-4.0977-14.77-10.742-18.609-6.6484-3.8359-14.84-3.8359-21.488 0-6.6445 3.8398-10.742 10.934-10.742 18.609 0.03125 4.5195 1.5039 8.9102 4.207 12.531 2.7031 3.625 6.4961 6.2852 10.82 7.6016-33.188 50.969-78.254 93.117-131.33 122.82-53.074 29.703-112.57 46.074-173.37 47.707v-26.746c53.715-1.5 106.16-16.695 152.36-44.145 46.199-27.453 84.621-66.246 111.62-112.71 1.6172-2.5664 2.5-5.5273 2.5547-8.5625 0-6.1445-3.2773-11.824-8.6016-14.898-5.3203-3.0742-11.879-3.0742-17.203 0-5.3203 3.0742-8.6016 8.7539-8.6016 14.898-0.046875 3.043 0.71875 6.043 2.2266 8.6836 1.5078 2.6445 3.6953 4.832 6.3398 6.3398-26.262 40.191-61.82 73.465-103.66 97.004-41.844 23.535-88.742 36.645-136.73 38.219v-363.14h457.34c4.5664 0 8.2656-3.6992 8.2656-8.2656h1.3516c-0.11719-101.35-32.551-200.02-92.59-281.67-60.035-81.652-144.55-142.04-241.25-172.36zm-141.68 445.62c-4.5625 0-8.2617 3.6992-8.2617 8.2656v458.84c-37.617-0.66406-75.012-5.9609-111.33-15.773v-135.22c0-4.6016-3.7344-8.3359-8.3398-8.3359s-8.3359 3.7344-8.3359 8.3359v131.02c-116.27-36.223-213.4-117.15-270-224.98-56.605-107.83-68.059-233.73-31.836-350 36.219-116.27 117.15-213.4 224.98-270 107.83-56.605 233.73-68.059 350.01-31.836 41.527 17.098 77.172 45.93 102.57 82.965 25.402 37.039 39.465 80.672 40.461 125.57 0 122-94.504 221.16-211.54 221.16zm282.46-95.254 152.95 95.254h-283.81c43.328-18.391 80.23-49.219 106.04-88.586 25.805-39.367 39.359-85.504 38.945-132.57-1.3125-65.02-28.32-126.88-75.121-172.03 69.805 38.543 128.38 94.594 169.95 162.64 41.57 68.047 64.707 145.74 67.141 225.45l-167.97-104.27c-3.9023-2.4492-9.0469-1.2734-11.496 2.6289-2.4453 3.8984-1.2695 9.0469 2.6289 11.492z"/>
 <path d="m472.07 351.72c-4.5625 0-8.2617 3.6992-8.2617 8.2617v338.65c-19.68-0.61719-39.25-3.1328-58.445-7.5117v-181.2c0-4.6055-3.7344-8.3398-8.3398-8.3398s-8.3398 3.7344-8.3398 8.3398v177.89c-20.809-5.8984-40.504-15.188-58.293-27.492v-126.81c0-4.6055-3.7344-8.3359-8.3398-8.3359s-8.3359 3.7305-8.3359 8.3359v113.44c-7.0469-6.2266-13.578-13.008-19.531-20.285-78.43-97.66-43.422-263.08-42.973-264.73 0.99609-4.4805-1.8281-8.918-6.3086-9.9141-4.4805-0.99609-8.9219 1.8281-9.918 6.3086-1.5039 7.0625-37.262 174.73 46.273 278.7h0.003906c28.617 34.879 68.066 59.203 112.08 69.113 1.1602 0.59766 2.4492 0.90625 3.7539 0.90234 24.629 5.7109 49.84 8.5352 75.125 8.4102 4.5625 0 8.2617-3.6992 8.2617-8.2617v-346.61c0.17188-2.3203-0.64453-4.6055-2.2461-6.293s-3.8398-2.6211-6.168-2.5703z"/>
 <path d="m673.24 176.24c-18.406 0-36.062 7.3125-49.082 20.328-13.016 13.02-20.328 30.672-20.328 49.082 0 18.41 7.3125 36.066 20.328 49.082 13.02 13.02 30.676 20.332 49.082 20.332 18.41 0 36.066-7.3125 49.086-20.332 13.016-13.016 20.328-30.672 20.328-49.082 0-18.41-7.3125-36.062-20.328-49.082-13.02-13.016-30.676-20.328-49.086-20.328zm0 100.66v-0.003906c-8.2852 0-16.234-3.2891-22.098-9.1523-5.8594-5.8594-9.1523-13.809-9.1523-22.098 0-8.2891 3.293-16.234 9.1523-22.098 5.8633-5.8594 13.812-9.1523 22.098-9.1523 8.2891 0 16.238 3.293 22.098 9.1523 5.8633 5.8633 9.1562 13.809 9.1562 22.098 0 8.2891-3.293 16.238-9.1562 22.098-5.8594 5.8633-13.809 9.1523-22.098 9.1523z"/>
</svg>
